<svg xmlns="http://www.w3.org/2000/svg" width="26" height="26" fill="none" viewBox="0 0 26 26"><rect width="26" height="26" fill="#7780D9" style="fill:color(display-p3 .4667 .502 .851);fill-opacity:1"/><rect width="22" height="22" x="2" y="2" fill="#B9BFFF" style="fill:color(display-p3 .7246 .7499 1);fill-opacity:1"/><path fill="#B0B7FF" d="M3 3H5V5H3V3Z" style="fill:color(display-p3 .6897 .7182 1);fill-opacity:1"/><path fill="#B0B7FF" d="M3 6H5V8H3V6Z" style="fill:color(display-p3 .6897 .7182 1);fill-opacity:1"/><path fill="#B0B7FF" d="M3 9H5V11H3V9Z" style="fill:color(display-p3 .6897 .7182 1);fill-opacity:1"/><path fill="#ABB2FA" d="M3 12H5V14H3V12Z" style="fill:color(display-p3 .6706 .699 .9799);fill-opacity:1"/><path fill="#ABB2FA" d="M3 15H5V17H3V15Z" style="fill:color(display-p3 .6706 .699 .9799);fill-opacity:1"/><path fill="#ABB2FA" d="M3 18H5V20H3V18Z" style="fill:color(display-p3 .6706 .699 .9799);fill-opacity:1"/><path fill="#969FF4" d="M3 21H5V23H3V21Z" style="fill:color(display-p3 .5882 .622 .9566);fill-opacity:1"/><path fill="#ABB2FA" d="M12 3H14V5H12V3Z" style="fill:color(display-p3 .6706 .699 .9799);fill-opacity:1"/><path fill="#ABB2FA" d="M12 6H14V8H12V6Z" style="fill:color(display-p3 .6706 .699 .9799);fill-opacity:1"/><path fill="#ABB2FA" d="M12 9H14V11H12V9Z" style="fill:color(display-p3 .6706 .699 .9799);fill-opacity:1"/><path fill="#969FF4" d="M12 12H14V14H12V12Z" style="fill:color(display-p3 .5882 .622 .9566);fill-opacity:1"/><path fill="#969FF4" d="M12 15H14V17H12V15Z" style="fill:color(display-p3 .5882 .622 .9566);fill-opacity:1"/><path fill="#969FF4" d="M12 18H14V20H12V18Z" style="fill:color(display-p3 .5882 .622 .9566);fill-opacity:1"/><path fill="#969FF4" d="M12 21H14V23H12V21Z" style="fill:color(display-p3 .5882 .622 .9566);fill-opacity:1"/><path fill="#B0B7FF" d="M6 3H8V5H6V3Z" style="fill:color(display-p3 .6897 .7182 1);fill-opacity:1"/><path fill="#B0B7FF" d="M6 6H8V8H6V6Z" style="fill:color(display-p3 .6897 .7182 1);fill-opacity:1"/><path fill="#ABB2FA" d="M6 9H8V11H6V9Z" style="fill:color(display-p3 .6706 .699 .9799);fill-opacity:1"/><path fill="#ABB2FA" d="M6 12H8V14H6V12Z" style="fill:color(display-p3 .6706 .699 .9799);fill-opacity:1"/><path fill="#ABB2FA" d="M6 15H8V17H6V15Z" style="fill:color(display-p3 .6706 .699 .9799);fill-opacity:1"/><path fill="#969FF4" d="M6 18H8V20H6V18Z" style="fill:color(display-p3 .5882 .622 .9566);fill-opacity:1"/><path fill="#969FF4" d="M6 21H8V23H6V21Z" style="fill:color(display-p3 .5882 .622 .9566);fill-opacity:1"/><path fill="#ABB2FA" d="M15 3H17V5H15V3Z" style="fill:color(display-p3 .6706 .699 .9799);fill-opacity:1"/><path fill="#ABB2FA" d="M15 6H17V8H15V6Z" style="fill:color(display-p3 .6706 .699 .9799);fill-opacity:1"/><path fill="#969FF4" d="M15 9H17V11H15V9Z" style="fill:color(display-p3 .5882 .622 .9566);fill-opacity:1"/><path fill="#969FF4" d="M15 12H17V14H15V12Z" style="fill:color(display-p3 .5882 .622 .9566);fill-opacity:1"/><path fill="#969FF4" d="M15 15H17V17H15V15Z" style="fill:color(display-p3 .5882 .622 .9566);fill-opacity:1"/><path fill="#969FF4" d="M15 18H17V20H15V18Z" style="fill:color(display-p3 .5882 .622 .9566);fill-opacity:1"/><path fill="#969FF4" d="M15 21H17V23H15V21Z" style="fill:color(display-p3 .5882 .622 .9566);fill-opacity:1"/><path fill="#B0B7FF" d="M9 3H11V5H9V3Z" style="fill:color(display-p3 .6897 .7182 1);fill-opacity:1"/><path fill="#ABB2FA" d="M9 6H11V8H9V6Z" style="fill:color(display-p3 .6706 .699 .9799);fill-opacity:1"/><path fill="#ABB2FA" d="M9 9H11V11H9V9Z" style="fill:color(display-p3 .6706 .699 .9799);fill-opacity:1"/><path fill="#ABB2FA" d="M9 12H11V14H9V12Z" style="fill:color(display-p3 .6706 .699 .9799);fill-opacity:1"/><path fill="#969FF4" d="M9 15H11V17H9V15Z" style="fill:color(display-p3 .5882 .622 .9566);fill-opacity:1"/><path fill="#969FF4" d="M9 18H11V20H9V18Z" style="fill:color(display-p3 .5882 .622 .9566);fill-opacity:1"/><path fill="#969FF4" d="M9 21H11V23H9V21Z" style="fill:color(display-p3 .5882 .622 .9566);fill-opacity:1"/><path fill="#ABB2FA" d="M18 3H20V5H18V3Z" style="fill:color(display-p3 .6706 .699 .9799);fill-opacity:1"/><path fill="#969FF4" d="M18 6H20V8H18V6Z" style="fill:color(display-p3 .5882 .622 .9566);fill-opacity:1"/><path fill="#969FF4" d="M18 9H20V11H18V9Z" style="fill:color(display-p3 .5882 .622 .9566);fill-opacity:1"/><path fill="#969FF4" d="M18 12H20V14H18V12Z" style="fill:color(display-p3 .5882 .622 .9566);fill-opacity:1"/><path fill="#969FF4" d="M18 15H20V17H18V15Z" style="fill:color(display-p3 .5882 .622 .9566);fill-opacity:1"/><path fill="#969FF4" d="M18 18H20V20H18V18Z" style="fill:color(display-p3 .5882 .622 .9566);fill-opacity:1"/><path fill="#969FF4" d="M18 21H20V23H18V21Z" style="fill:color(display-p3 .5882 .622 .9566);fill-opacity:1"/><path fill="#969FF4" d="M21 3H23V5H21V3Z" style="fill:color(display-p3 .5882 .622 .9566);fill-opacity:1"/><path fill="#969FF4" d="M21 6H23V8H21V6Z" style="fill:color(display-p3 .5882 .622 .9566);fill-opacity:1"/><path fill="#969FF4" d="M21 9H23V11H21V9Z" style="fill:color(display-p3 .5882 .622 .9566);fill-opacity:1"/><path fill="#969FF4" d="M21 12H23V14H21V12Z" style="fill:color(display-p3 .5882 .622 .9566);fill-opacity:1"/><path fill="#969FF4" d="M21 15H23V17H21V15Z" style="fill:color(display-p3 .5882 .622 .9566);fill-opacity:1"/><path fill="#969FF4" d="M21 18H23V20H21V18Z" style="fill:color(display-p3 .5882 .622 .9566);fill-opacity:1"/><path fill="#969FF4" d="M21 21H23V23H21V21Z" style="fill:color(display-p3 .5882 .622 .9566);fill-opacity:1"/></svg>